<svg width="37" height="37" viewBox="0 0 37 37" fill="none" xmlns="http://www.w3.org/2000/svg">
<path d="M35.6786 31.7143H1.32143C0.970964 31.7143 0.634853 31.8535 0.387037 32.1013C0.139222 32.3491 0 32.6852 0 33.0357L0 35.6786C0 36.029 0.139222 36.3651 0.387037 36.613C0.634853 36.8608 0.970964 37 1.32143 37H35.6786C36.029 37 36.3651 36.8608 36.613 36.613C36.8608 36.3651 37 36.029 37 35.6786V33.0357C37 32.6852 36.8608 32.3491 36.613 32.1013C36.3651 31.8535 36.029 31.7143 35.6786 31.7143ZM35.6786 21.1429H1.32143C0.970964 21.1429 0.634853 21.2821 0.387037 21.5299C0.139222 21.7777 0 22.1138 0 22.4643L0 25.1071C0 25.4576 0.139222 25.7937 0.387037 26.0415C0.634853 26.2894 0.970964 26.4286 1.32143 26.4286H35.6786C36.029 26.4286 36.3651 26.2894 36.613 26.0415C36.8608 25.7937 37 25.4576 37 25.1071V22.4643C37 22.1138 36.8608 21.7777 36.613 21.5299C36.3651 21.2821 36.029 21.1429 35.6786 21.1429ZM35.6786 10.5714H1.32143C0.970964 10.5714 0.634853 10.7106 0.387037 10.9585C0.139222 11.2063 0 11.5424 0 11.8929L0 14.5357C0 14.8862 0.139222 15.2223 0.387037 15.4701C0.634853 15.7179 0.970964 15.8571 1.32143 15.8571H35.6786C36.029 15.8571 36.3651 15.7179 36.613 15.4701C36.8608 15.2223 37 14.8862 37 14.5357V11.8929C37 11.5424 36.8608 11.2063 36.613 10.9585C36.3651 10.7106 36.029 10.5714 35.6786 10.5714ZM35.6786 0H1.32143C0.970964 0 0.634853 0.139221 0.387037 0.387037C0.139222 0.634853 0 0.970964 0 1.32143L0 3.96429C0 4.31475 0.139222 4.65086 0.387037 4.89868C0.634853 5.14649 0.970964 5.28571 1.32143 5.28571H35.6786C36.029 5.28571 36.3651 5.14649 36.613 4.89868C36.8608 4.65086 37 4.31475 37 3.96429V1.32143C37 0.970964 36.8608 0.634853 36.613 0.387037C36.3651 0.139221 36.029 0 35.6786 0Z" fill="white"/>
</svg>
